<svg xmlns="http://www.w3.org/2000/svg" xmlns:xlink="http://www.w3.org/1999/xlink" version="1.1" id="Layer_1" x="0px" y="0px" width="42.69730000000001" height="42.69730000000001" viewBox="0 0 100 100" style="enable-background:new 0 0 100 100;" xml:space="preserve" overflow="hidden" preserveAspectRatio="none" class="svg-view__svg">
<path id="Color1" style="fill: rgb(150, 212, 0);" d="M50,0C22.4,0,0,22.4,0,50s22.4,50,50,50c27.6,0,50-22.4,50-50S77.6,0,50,0z M50,95.4  C25,95.4,4.6,75,4.6,50S25,4.6,50,4.6C75,4.6,95.4,25,95.4,50S75,95.4,50,95.4z M69.3,52.8c1.4,1.9,2.1,4.6,2.1,8  c0,3.1-0.7,5.7-2,7.8c-1.3,2.1-3.1,3.8-5.2,5.1c-2.1,1.3-4.5,2.2-7.2,2.8c-1.5,0.3-3.1,0.6-4.6,0.7V83h-4.6v-5.7  c-3.6-0.1-6.9-0.7-9.9-1.7c-3.4-1.1-6.4-3.2-9.1-6.2l8.7-8.1c1.7,1.9,3.5,3.4,5.4,4.6c1.9,1.2,4.2,1.8,7,1.8c0.9,0,1.9-0.1,2.9-0.3  c1-0.2,2-0.6,2.8-1.1c0.9-0.5,1.6-1.1,2.1-1.9c0.5-0.8,0.8-1.6,0.8-2.6c0-1.8-0.7-3.1-2.1-4c-1.4-0.9-3.1-1.6-5.2-2.1  c-2.1-0.5-4.4-1-6.8-1.5c-2.4-0.5-4.7-1.2-6.8-2.3c-2.1-1-3.8-2.5-5.2-4.4c-1.4-1.9-2.1-4.4-2.1-7.7c0-2.9,0.6-5.4,1.8-7.5  c1.2-2.1,2.8-3.9,4.7-5.2c2-1.4,4.2-2.4,6.7-3c1.4-0.4,2.8-0.6,4.2-0.8v-6.1h4.6v6c3.1,0.1,6.1,0.7,9.2,1.8c3.4,1.2,6.1,3.2,8.2,6.1  l-8.7,7.7c-2.5-3.5-5.9-5.3-10.2-5.3c-1.7,0-3.4,0.4-5.1,1.3c-1.7,0.9-2.5,2.3-2.5,4.2c0,1.6,0.7,2.7,2.1,3.4  c1.4,0.7,3.1,1.3,5.2,1.8c2.1,0.5,4.4,1,6.8,1.6c2.4,0.5,4.7,1.4,6.8,2.5C66.2,49.3,67.9,50.9,69.3,52.8z"></path>
<g>
</g>
<g>
</g>
<g>
</g>
<g>
</g>
<g>
</g>
<g>
</g>
<g>
</g>
<g>
</g>
<g>
</g>
<g>
</g>
<g>
</g>
<g>
</g>
<g>
</g>
<g>
</g>
<g>
</g>
</svg>