<?xml version="1.0" encoding="utf-8"?>
<!-- Generator: Adobe Illustrator 26.4.1, SVG Export Plug-In . SVG Version: 6.00 Build 0)  -->
<svg version="1.1" id="Layer_1" xmlns="http://www.w3.org/2000/svg" xmlns:xlink="http://www.w3.org/1999/xlink" x="0px" y="0px"
	 viewBox="0 0 55.4 55.4" style="enable-background:new 0 0 55.4 55.4;" xml:space="preserve">
<style type="text/css">
	.st0{fill:#91C11B;}
</style>
<path id="Color1_1_" class="st0" d="M54.2,33.6l-6.5-21l2.3-0.3c1.5-0.2,2.5-1.6,2.3-3.1s-1.6-2.5-3.1-2.3L31.2,9.6
	c-1.1-1.1-2.6-1.7-4.3-1.4c-1.6,0.3-2.9,1.3-3.6,2.7L5.4,13.7c-1.5,0.2-2.5,1.6-2.3,3.1s1.6,2.5,3.1,2.3l1.5-0.2L1.2,40H0
	c0,4.8,3.9,8.6,8.6,8.6s8.6-3.9,8.6-8.6h-1.2L9.5,18.5L24,16.2c1.1,1.2,2.7,1.8,4.4,1.6c1.7-0.3,3-1.4,3.7-2.9l13.5-2.1l-6.4,20.8
	h-1.2c0,4.8,3.9,8.6,8.6,8.6s8.6-3.9,8.6-8.6H54.2z M2.6,40l6-19.6L14.7,40H2.6z M40.7,33.6l6-19.6l6,19.6H40.7z"/>
</svg>
