<svg xmlns="http://www.w3.org/2000/svg" xmlns:xlink="http://www.w3.org/1999/xlink" xmlns:a="http://ns.adobe.com/AdobeSVGViewerExtensions/3.0/" version="1.1" x="0px" y="0px" width="35.991537825131225" height="35.991537825131225" viewBox="0 0 100 100" style="enable-background:new 0 0 100 100;" xml:space="preserve" overflow="hidden" preserveAspectRatio="none" class="svg-view__svg">
<defs>
</defs>
<path id="Color1_1_" style="fill: rgb(175, 212, 87);" d="M50,0C22.4,0,0,22.4,0,50c0,27.6,22.4,50,50,50c27.6,0,50-22.4,50-50C100,22.4,77.6,0,50,0z M64.8,28.1  c3,0,5.4,2.4,5.4,5.4c0,3-2.4,5.4-5.4,5.4c-3,0-5.4-2.4-5.4-5.4C59.4,30.5,61.9,28.1,64.8,28.1z M34.2,28.1c3,0,5.4,2.4,5.4,5.4  c0,3-2.4,5.4-5.4,5.4c-3,0-5.4-2.4-5.4-5.4C28.8,30.5,31.2,28.1,34.2,28.1z M50,80.3c-12.5,0-23-8.5-26-20h5.4  c4.5,6.7,12.1,11,20.7,11c8.6,0,16.2-4.4,20.7-11H76C72.9,71.9,62.5,80.3,50,80.3z"></path>
</svg>