<?xml version="1.0" encoding="utf-8"?>
<!-- Generator: Adobe Illustrator 26.4.1, SVG Export Plug-In . SVG Version: 6.00 Build 0)  -->
<svg version="1.1" id="Layer_1" xmlns="http://www.w3.org/2000/svg" xmlns:xlink="http://www.w3.org/1999/xlink" x="0px" y="0px"
	 viewBox="0 0 40 40" style="enable-background:new 0 0 40 40;" xml:space="preserve">
<style type="text/css">
	.st0{fill:#96D400;}
</style>
<path id="Color1_5_" class="st0" d="M21.5,12c0-4.6-3.8-8.4-8.5-8.4S4.6,7.4,4.6,12c0,4.7,3.8,8.4,8.4,8.4
	C17.7,20.5,21.5,16.7,21.5,12z M19.6,20.5h-6.6H7c-3.9,0-7,3.1-7,7v8.8h5.3v-8.7c0-0.4,0.4-0.8,0.8-0.8s0.8,0.4,0.8,0.8v8.7h13.1
	v-8.7c0-0.4,0.4-0.8,0.8-0.8c0.4,0,0.8,0.4,0.8,0.8v8.7h5v-8.8C26.6,23.6,23.5,20.5,19.6,20.5z"/>
<rect id="Color1_4_" x="25.7" y="15.7" class="st0" width="13.9" height="3.2"/>
<rect id="Color1_3_" x="31" y="10.4" class="st0" width="3.2" height="13.9"/>
</svg>
